<svg xmlns="http://www.w3.org/2000/svg" aria-hidden="true" overflow="hidden" style="position:absolute;width:0;height:0">
  <defs>
    <symbol id="icon-arrow-left2" viewBox="0 0 32 32">
      <path d="m12.586 27.414-10-10a2 2 0 0 1 0-2.828l10-10a2 2 0 1 1 2.828 2.828L8.828 14H28a2 2 0 1 1 0 4H8.828l6.586 6.586c.39.39.586.902.586 1.414s-.195 1.024-.586 1.414a2 2 0 0 1-2.828 0z"/>
    </symbol>
    <symbol id="icon-facebook" viewBox="0 0 32 32">
      <path d="M0 16C0 7.163 7.163 0 16 0s16 7.163 16 16-7.163 16-16 16S0 24.837 0 16zm17.668 9.408v-8.705h2.403l.319-3h-2.721l.004-1.501c0-.782.074-1.202 1.198-1.202h1.502V8H17.97c-2.887 0-3.903 1.455-3.903 3.902v1.801h-1.799v3h1.799v8.705h3.602z"/>
    </symbol>
    <symbol id="icon-instagram" viewBox="0 0 32 32">
      <path d="M0 16C0 7.163 7.163 0 16 0s16 7.163 16 16-7.163 16-16 16S0 24.837 0 16zm16.001-8.533c-2.317 0-2.608.01-3.519.052-.909.042-1.528.185-2.071.396-.561.218-1.037.51-1.512.984s-.766.95-.985 1.511c-.212.543-.356 1.163-.396 2.071-.041.91-.051 1.201-.051 3.519s.01 2.607.052 3.518c.042.909.186 1.529.396 2.071.218.561.51 1.037.984 1.512s.95.767 1.511.985c.543.211 1.163.355 2.072.396.91.041 1.201.052 3.518.052s2.608-.01 3.518-.052c.908-.042 1.529-.185 2.072-.396.561-.218 1.036-.51 1.511-.985s.766-.95.985-1.512c.21-.543.354-1.163.396-2.071.041-.91.052-1.2.052-3.518s-.011-2.608-.052-3.519c-.043-.909-.187-1.529-.396-2.071-.219-.561-.51-1.037-.985-1.512s-.949-.766-1.511-.984c-.544-.211-1.164-.355-2.073-.396-.91-.041-1.2-.052-3.518-.052h.003z"/>
      <path d="M15.235 9.005h.766c2.278 0 2.548.008 3.448.049.832.038 1.284.177 1.584.294.398.155.682.34.981.638s.484.583.639.981c.117.3.256.752.294 1.584.041.899.05 1.17.05 3.447s-.009 2.548-.05 3.447c-.038.832-.177 1.284-.294 1.584-.155.398-.34.682-.639.98s-.582.483-.981.638c-.3.117-.752.256-1.584.294-.9.041-1.17.05-3.448.05s-2.549-.009-3.448-.05c-.832-.038-1.284-.177-1.585-.294-.398-.155-.683-.34-.981-.638s-.484-.582-.639-.981c-.117-.3-.256-.752-.294-1.584-.041-.9-.049-1.17-.049-3.449s.008-2.548.049-3.447c.038-.832.177-1.284.294-1.584.155-.398.34-.683.639-.981s.583-.484.981-.639c.301-.117.753-.256 1.585-.294.787-.036 1.092-.046 2.683-.048v.002zm5.32 1.417a1.024 1.024 0 1 0 0 2.048 1.024 1.024 0 0 0 0-2.048zM16 11.618a4.382 4.382 0 1 0 0 8.764 4.382 4.382 0 0 0 0-8.764z"/>
      <path d="M16.001 13.155a2.844 2.844 0 1 1 .001 5.689 2.844 2.844 0 0 1-.001-5.689z"/>
    </symbol>
<symbol id="burger" viewBox="0 0 32 32">
<path d="M29.333 24.007c0 0.733-0.595 1.327-1.327 1.327h-10.68c-0.352 0-0.689-0.14-0.938-0.389s-0.389-0.586-0.389-0.938c0-0.352 0.14-0.689 0.389-0.938s0.586-0.389 0.938-0.389h10.68c0.733 0 1.327 0.593 1.327 1.327zM29.333 16c0 0.733-0.595 1.327-1.327 1.327h-24.013c-0.352 0-0.689-0.14-0.938-0.389s-0.389-0.586-0.389-0.938c0-0.352 0.14-0.689 0.389-0.938s0.586-0.389 0.938-0.389h24.013c0.733 0 1.327 0.595 1.327 1.327zM28.007 9.32c0.352 0 0.689-0.14 0.938-0.389s0.389-0.586 0.389-0.938c0-0.352-0.14-0.689-0.389-0.938s-0.586-0.389-0.938-0.389h-16.013c-0.174 0-0.347 0.034-0.508 0.101s-0.307 0.164-0.43 0.288c-0.123 0.123-0.221 0.269-0.288 0.43s-0.101 0.333-0.101 0.508c0 0.174 0.034 0.347 0.101 0.508s0.164 0.307 0.288 0.43c0.123 0.123 0.269 0.221 0.43 0.288s0.333 0.101 0.508 0.101h16.013z"></path>
</symbol>
<symbol id="close" viewBox="0 0 32 32">
<path d="M4.94 4.020l-0.92 0.92 11.060 11.060-11.060 11.060 0.92 0.92 11.060-11.060 11.060 11.060 0.92-0.92-11.060-11.060 11.060-11.060-0.92-0.92-11.060 11.060z"></path>
</symbol>
<symbol id="icon-logo-dark" viewBox="0 0 75 32">
<path d="M3.46 6.907l-1.267-0.766c-0.794-0.48-1.358-0.954-1.699-1.42-0.334-0.473-0.501-1.010-0.501-1.622 0-0.912 0.313-1.657 0.947-2.228 0.648-0.571 1.469-0.856 2.486-0.856s1.859 0.272 2.667 0.815v1.887c-0.835-0.801-1.741-1.205-2.701-1.205-0.543 0-0.989 0.125-1.337 0.383-0.348 0.251-0.522 0.571-0.522 0.968 0 0.348 0.125 0.675 0.383 0.982s0.668 0.627 1.239 0.954l1.274 0.745c1.42 0.842 2.131 1.915 2.131 3.224 0 0.933-0.313 1.685-0.94 2.27-0.62 0.585-1.427 0.87-2.43 0.87-1.149 0-2.193-0.355-3.133-1.058v-2.11c0.898 1.135 1.936 1.706 3.119 1.706 0.522 0 0.954-0.146 1.295-0.432 0.348-0.292 0.522-0.661 0.522-1.1 0-0.71-0.508-1.379-1.532-2.012zM16.571 0.167h1.664v11.614h-1.664v-5.055h-6.524v5.055h-1.664v-11.614h1.664v5.020h6.524v-5.020zM26.507 0c1.796 0 3.286 0.571 4.484 1.706s1.796 2.562 1.796 4.275-0.606 3.133-1.81 4.254c-1.205 1.121-2.722 1.678-4.554 1.678s-3.21-0.557-4.379-1.678c-1.163-1.128-1.748-2.534-1.748-4.226s0.585-3.168 1.762-4.31c1.177-1.135 2.66-1.706 4.456-1.706zM26.569 1.581c-1.33 0-2.423 0.418-3.286 1.246-0.856 0.829-1.281 1.894-1.281 3.182s0.432 2.298 1.288 3.126c0.856 0.829 1.936 1.246 3.224 1.246s2.381-0.425 3.245-1.274c0.87-0.849 1.302-1.901 1.302-3.168s-0.432-2.263-1.302-3.098c-0.863-0.842-1.929-1.267-3.196-1.267zM34.729 11.781v-11.634h3.683c1.107 0 1.991 0.299 2.653 0.898s0.989 1.399 0.989 2.409c0 0.675-0.167 1.274-0.508 1.796s-0.801 0.898-1.386 1.142c-0.585 0.23-1.427 0.348-2.527 0.348h-1.232v5.041h-1.671zM38.12 1.629h-1.72v3.634h1.824c0.675 0 1.198-0.16 1.567-0.473 0.369-0.32 0.55-0.78 0.55-1.372 0-1.191-0.738-1.789-2.214-1.789zM11.272 28.735c0 0.989-0.341 1.782-1.024 2.381-0.675 0.592-1.622 0.891-2.841 0.891h-6.663v-11.523h5.57c0.717 0 1.344 0.070 1.88 0.209s0.968 0.327 1.295 0.571c0.327 0.237 0.571 0.522 0.731 0.849s0.244 0.682 0.244 1.072c0 0.425-0.084 0.815-0.251 1.17s-0.376 0.648-0.627 0.884c-0.244 0.23-0.487 0.39-0.738 0.48 0.787 0.313 1.386 0.703 1.796 1.184 0.418 0.473 0.627 1.086 0.627 1.838zM7.213 23.798c0-0.557-0.181-0.926-0.55-1.107s-0.94-0.272-1.713-0.272h-0.731v2.757h0.745c0.794 0 1.365-0.090 1.713-0.272 0.355-0.181 0.529-0.55 0.529-1.107zM7.784 28.595c0-0.989-0.717-1.483-2.144-1.483h-1.413v2.952h1.413c1.427 0 2.144-0.487 2.144-1.469zM25.657 32h-3.558l-0.94-2.339h-5.006l-0.954 2.339h-3.558l5.097-11.523h3.843l5.083 11.523zM20.359 27.662l-1.685-4.205-1.706 4.205h3.391zM39.311 32h-4.24l-4.407-5.396v5.396h-3.474v-11.523h3.474v5.152l4.171-5.152h3.774l-4.289 5.396 4.985 6.127zM49.511 32h-8.689v-11.523h8.55v2.312h-5.069v2.11h4.839v2.319h-4.839v2.458h5.215v2.319zM63.004 32h-3.732l-0.905-2.047c-0.334-0.745-0.634-1.295-0.898-1.636-0.265-0.348-0.529-0.571-0.78-0.668s-0.571-0.153-0.975-0.153h-0.39v4.498h-3.474v-11.523h5.911c0.954 0 1.734 0.195 2.346 0.585s1.044 0.856 1.316 1.413c0.272 0.557 0.411 1.079 0.411 1.581 0 0.585-0.111 1.072-0.341 1.483-0.223 0.397-0.46 0.689-0.71 0.87s-0.529 0.355-0.842 0.522c0.369 0.216 0.675 0.473 0.912 0.773 0.244 0.292 0.571 0.891 0.989 1.796l1.163 2.5zM58.284 24.118c0-0.529-0.174-0.905-0.522-1.114s-0.919-0.313-1.706-0.313h-0.731v2.778h0.745c0.849 0 1.427-0.090 1.741-0.272 0.313-0.188 0.473-0.543 0.473-1.072zM75.328 20.477l-4.512 6.245v5.278h-3.474v-5.215l-4.595-6.308h3.607l2.646 3.628 2.653-3.628h3.683z"></path>
</symbol>

  </defs>
</svg>
