<?xml version="1.0" encoding="UTF-8"?>
<svg id="_Слой_1" data-name="Слой 1" xmlns="http://www.w3.org/2000/svg" viewBox="0 0 108.19 45.96">
  <defs>
    <style>
      .cls-1 {
        fill: #31271b;
      }
    </style>
  </defs>
  <path class="cls-1" d="M4.97,9.92l-1.82-1.1c-1.14-.69-1.95-1.37-2.44-2.04-.48-.68-.72-1.45-.72-2.33,0-1.31.45-2.38,1.36-3.2C2.28.43,3.46.02,4.92.02s2.67.39,3.83,1.17v2.71c-1.2-1.15-2.5-1.73-3.88-1.73-.78,0-1.42.18-1.92.55-.5.36-.75.82-.75,1.39,0,.5.18.97.55,1.41.37.44.96.9,1.78,1.37l1.83,1.07c2.04,1.21,3.06,2.75,3.06,4.63,0,1.34-.45,2.42-1.35,3.26-.89.84-2.05,1.25-3.49,1.25-1.65,0-3.15-.51-4.5-1.52v-3.03c1.29,1.63,2.78,2.45,4.48,2.45.75,0,1.37-.21,1.86-.62.5-.42.75-.95.75-1.58,0-1.02-.73-1.98-2.2-2.89ZM23.8.24h2.39v16.68h-2.39v-7.26h-9.37v7.26h-2.39V.24h2.39v7.21h9.37V.24ZM38.07,0c2.58,0,4.72.82,6.44,2.45,1.72,1.63,2.58,3.68,2.58,6.14s-.87,4.5-2.6,6.11c-1.73,1.61-3.91,2.41-6.54,2.41s-4.61-.8-6.29-2.41c-1.67-1.62-2.51-3.64-2.51-6.07s.84-4.55,2.53-6.19c1.69-1.63,3.82-2.45,6.4-2.45ZM38.16,2.27c-1.91,0-3.48.6-4.72,1.79-1.23,1.19-1.84,2.72-1.84,4.57s.62,3.3,1.85,4.49c1.23,1.19,2.78,1.79,4.63,1.79s3.42-.61,4.66-1.83c1.25-1.22,1.87-2.73,1.87-4.55s-.62-3.25-1.87-4.45c-1.24-1.21-2.77-1.82-4.59-1.82ZM49.88,16.92V.21h5.29c1.59,0,2.86.43,3.81,1.29.95.86,1.42,2.01,1.42,3.46,0,.97-.24,1.83-.73,2.58-.49.75-1.15,1.29-1.99,1.64-.84.33-2.05.5-3.63.5h-1.77v7.24h-2.4ZM54.75,2.34h-2.47v5.22h2.62c.97,0,1.72-.23,2.25-.68.53-.46.79-1.12.79-1.97,0-1.71-1.06-2.57-3.18-2.57ZM16.19,41.27c0,1.42-.49,2.56-1.47,3.42-.97.85-2.33,1.28-4.08,1.28H1.07v-16.55h8c1.03,0,1.93.1,2.7.3.77.2,1.39.47,1.86.82.47.34.82.75,1.05,1.22.23.47.35.98.35,1.54,0,.61-.12,1.17-.36,1.68-.24.51-.54.93-.9,1.27-.35.33-.7.56-1.06.69,1.13.45,1.99,1.01,2.58,1.7.6.68.9,1.56.9,2.64ZM10.36,34.18c0-.8-.26-1.33-.79-1.59-.53-.26-1.35-.39-2.46-.39h-1.05v3.96h1.07c1.14,0,1.96-.13,2.46-.39.51-.26.76-.79.76-1.59ZM11.18,41.07c0-1.42-1.03-2.13-3.08-2.13h-2.03v4.24h2.03c2.05,0,3.08-.7,3.08-2.11ZM36.85,45.96h-5.11l-1.35-3.36h-7.19l-1.37,3.36h-5.11l7.32-16.55h5.52l7.3,16.55ZM29.24,39.73l-2.42-6.04-2.45,6.04h4.87ZM56.46,45.96h-6.09l-6.33-7.75v7.75h-4.99v-16.55h4.99v7.4l5.99-7.4h5.42l-6.16,7.75,7.16,8.8ZM71.11,45.96h-12.48v-16.55h12.28v3.32h-7.28v3.03h6.95v3.33h-6.95v3.53h7.49v3.33ZM90.49,45.96h-5.36l-1.3-2.94c-.48-1.07-.91-1.86-1.29-2.35-.38-.5-.76-.82-1.12-.96-.36-.14-.82-.22-1.4-.22h-.56v6.46h-4.99v-16.55h8.49c1.37,0,2.49.28,3.37.84.88.56,1.5,1.23,1.89,2.03.39.8.59,1.55.59,2.27,0,.84-.16,1.54-.49,2.13-.32.57-.66.99-1.02,1.25-.36.26-.76.51-1.21.75.53.31.97.68,1.31,1.11.35.42.82,1.28,1.42,2.58l1.67,3.59ZM83.71,34.64c0-.76-.25-1.3-.75-1.6-.5-.3-1.32-.45-2.45-.45h-1.05v3.99h1.07c1.22,0,2.05-.13,2.5-.39.45-.27.68-.78.68-1.54ZM108.19,29.41l-6.48,8.97v7.58h-4.99v-7.49l-6.6-9.06h5.18l3.8,5.21,3.81-5.21h5.29Z"/>
</svg>